<svg xmlns="http://www.w3.org/2000/svg" width="96" height="96" viewBox="0 0 96 96">
  <rect x="1" y="1" width="94" height="94" rx="14" fill="#ffffff" fill-opacity="0.22" stroke="#ffffff" stroke-width="2"/>
  <path d="M48 16 L68 24 L64 56 L48 74 L32 56 L28 24 Z" fill="#ffffff" fill-opacity="0.62" stroke="#ffffff" stroke-width="2"/>
  <path d="M27 66 L46 47 L50 51 L31 70 Z" fill="#ffffff" fill-opacity="0.90"/>
  <path d="M69 66 L50 47 L46 51 L65 70 Z" fill="#ffffff" fill-opacity="0.90"/>
  <rect x="26" y="67" width="7" height="5" fill="#ffffff" fill-opacity="0.76"/>
  <rect x="63" y="67" width="7" height="5" fill="#ffffff" fill-opacity="0.76"/>
  <circle cx="48" cy="47" r="16" fill="#ffffff" fill-opacity="0.316"/>
  <path d="M34 45 L38 36 L46 42 L50 35 L58 42 L62 36 L66 45 L60 55 L36 55 Z" fill="#ffffff" fill-opacity="0.95"/><rect x="40" y="55" width="16" height="4" fill="#ffffff" fill-opacity="0.85"/>
</svg>
