<svg xmlns="http://www.w3.org/2000/svg" width="96" height="96" viewBox="0 0 96 96">
  <rect x="1" y="1" width="94" height="94" rx="14" fill="#ffffff" fill-opacity="0.24" stroke="#ffffff" stroke-width="2"/>
  <path d="M48 16 L68 24 L64 56 L48 74 L32 56 L28 24 Z" fill="#ffffff" fill-opacity="0.88" stroke="#ffffff" stroke-width="2"/>
  <path d="M27 66 L46 47 L50 51 L31 70 Z" fill="#ffffff" fill-opacity="0.93"/>
  <path d="M69 66 L50 47 L46 51 L65 70 Z" fill="#ffffff" fill-opacity="0.93"/>
  <rect x="26" y="67" width="7" height="5" fill="#ffffff" fill-opacity="0.78"/>
  <rect x="63" y="67" width="7" height="5" fill="#ffffff" fill-opacity="0.78"/>
  <path d="M39 54 L42 49 L47 50 L50 54 L45 58 Z" fill="#ffffff" fill-opacity="0.95"/><path d="M56 36 L52 46 L58 46 L49 60 L52 50 L46 50 Z" fill="#ffffff" fill-opacity="0.88"/>
</svg>
