<?xml version="1.0" encoding="UTF-8" standalone="no"?>
<!-- Created with Inkscape (http://www.inkscape.org/) -->

<svg
   id="flag"
   width="300"
   height="150"
   version="1.0"
   sodipodi:docname="Flag_of_the_Byelorussian_Soviet_Socialist_Republic_(1919–1927).svg"
   inkscape:version="1.1.1 (3bf5ae0d25, 2021-09-20)"
   xmlns:inkscape="http://www.inkscape.org/namespaces/inkscape"
   xmlns:sodipodi="http://sodipodi.sourceforge.net/DTD/sodipodi-0.dtd"
   xmlns="http://www.w3.org/2000/svg"
   xmlns:svg="http://www.w3.org/2000/svg"
   xmlns:rdf="http://www.w3.org/1999/02/22-rdf-syntax-ns#"
   xmlns:cc="http://creativecommons.org/ns#"
   xmlns:dc="http://purl.org/dc/elements/1.1/">
  <defs
     id="defs15" />
  <sodipodi:namedview
     id="namedview13"
     pagecolor="#ffffff"
     bordercolor="#666666"
     borderopacity="1.0"
     inkscape:pageshadow="2"
     inkscape:pageopacity="0.0"
     inkscape:pagecheckerboard="0"
     showgrid="false"
     inkscape:zoom="3.9566667"
     inkscape:cx="141.91238"
     inkscape:cy="75.063184"
     inkscape:window-width="1920"
     inkscape:window-height="1007"
     inkscape:window-x="-9"
     inkscape:window-y="-9"
     inkscape:window-maximized="1"
     inkscape:current-layer="main" />
  <title
     id="title1">Flag of the Byelorussian Soviet Socialist Republic (1919–1927)</title>
  <g
     id="main"
     transform="translate(-86.612373,-173.82883)">
    <rect
       id="red"
       x="86.612373"
       y="173.82883"
       width="300"
       height="150"
       fill="#d40000"
       style="fill:#be000d;fill-opacity:1" />
    <g
       id="text"
       transform="translate(-3.674997 .135)"
       fill="#ffcc00"
       style="fill:#fcd20f;fill-opacity:1">
      <path
         id="С1"
         d="m113.05508 234.06839q-3.58854 0-6.16146-1.48958-2.57291-1.48959-3.92708-4.29948-1.35417-2.84375-1.35417-6.80468v-25.01822q0-3.99479 1.35417-6.80468 1.35417-2.84375 3.89323-4.33334 2.57291-1.48958 6.19531-1.48958 3.62239 0 6.19531 1.48958 2.57291 1.48959 3.89322 4.33334 1.35417 2.80989 1.35417 6.77083v2.09895h-6.5v-2.09895q0-1.9974-0.57552-3.41927-0.57552-1.42188-1.69271-2.16667-1.11718-0.74479-2.67447-0.74479t-2.67448 0.74479q-1.08333 0.74479-1.69271 2.16667-0.57552 1.42187-0.57552 3.45312v25.01822q0 1.99739 0.57552 3.41927 0.60938 1.42187 1.69271 2.16666 1.11719 0.74479 2.67448 0.74479t2.67447-0.74479q1.11719-0.74479 1.69271-2.16666 0.57552-1.42188 0.57552-3.41927v-2.09896h6.5v2.09896q0 3.96093-1.35417 6.80468-1.32031 2.80989-3.89322 4.29948-2.57292 1.48958-6.19531 1.48958z"
         style="fill:#fcd20f;fill-opacity:1" />
      <path
         id="С2"
         d="m140.68006 234.06839q-3.58854 0-6.16145-1.48958-2.57292-1.48959-3.92708-4.29948-1.35417-2.84375-1.35417-6.80468v-25.01822q0-3.99479 1.35417-6.80468 1.35416-2.84375 3.89322-4.33334 2.57292-1.48958 6.19531-1.48958 3.6224 0 6.19531 1.48958 2.57292 1.48959 3.89323 4.33334 1.35417 2.80989 1.35417 6.77083v2.09895h-6.5v-2.09895q0-1.9974-0.57552-3.41927-0.57552-1.42188-1.69271-2.16667t-2.67448-0.74479-2.67447 0.74479q-1.08334 0.74479-1.69271 2.16667-0.57552 1.42187-0.57552 3.45312v25.01822q0 1.99739 0.57552 3.41927 0.60937 1.42187 1.69271 2.16666 1.11718 0.74479 2.67447 0.74479t2.67448-0.74479 1.69271-2.16666q0.57552-1.42188 0.57552-3.41927v-2.09896h6.5v2.09896q0 3.96093-1.35417 6.80468-1.32031 2.80989-3.89323 4.29948-2.57291 1.48958-6.19531 1.48958z"
         style="fill:#fcd20f;fill-opacity:1" />
      <path
         id="Р"
         d="m161.09412 208.37309h9.30989q1.32031 0 2.26822-0.60937 0.98177-0.60938 1.48959-1.76042 0.50781-1.15104 0.50781-2.74219v-7.54947q0-1.65885-0.50781-2.84375-0.50782-1.1849-1.48959-1.79427-0.94791-0.64323-2.26822-0.64323h-9.30989v-6.09375h9.17447q3.48698 0 5.92448 1.32032 2.47135 1.32031 3.75781 3.85937 1.28645 2.53906 1.28645 6.09375v7.8203q0 3.48698-1.32031 5.95833-1.28646 2.47136-3.75781 3.79167-2.4375 1.28646-5.89062 1.28646h-9.17447zm-3.55469-24.03645h6.43229v49.22394h-6.43229z"
         style="fill:#fcd20f;fill-opacity:1" />
      <path
         id="Б"
         d="m191.73212 227.46683h9.44531q1.32031 0 2.26823-0.60937 0.98177-0.60938 1.48958-1.76042t0.50781-2.74219v-6.87239q0-1.65885-0.50781-2.84375-0.50781-1.18489-1.48958-1.79427-0.94792-0.64323-2.26823-0.64323h-9.44531v-6.09374h9.17448q3.48698 0 5.92447 1.32031 2.47136 1.32031 3.75781 3.85937 1.28646 2.53906 1.28646 6.09375v7.14322q0 3.48698-1.32031 5.95834-1.28646 2.47135-3.75781 3.79166-2.4375 1.28646-5.89062 1.28646h-9.17448zm-3.55468-43.13019h6.43229v49.22394h-6.43229zm4.29947 0h16.48698v6.09375h-16.48698z"
         style="fill:#fcd20f;fill-opacity:1" />
    </g>
    <path
       id="canton"
       d="m216.61237 173.82883v70h-129.999997v5h134.999997v-75z"
       fill="#ffcc00"
       fill-rule="evenodd"
       stroke-width="8.22247"
       style="fill:#fcd20f;fill-opacity:1" />
  </g>
  <metadata
     id="metadata1">
    <rdf:RDF>
      <cc:Work
         rdf:about="">
        <dc:title>Flag of the Byelorussian Soviet Socialist Republic (1919–1927)</dc:title>
      </cc:Work>
    </rdf:RDF>
  </metadata>
</svg>
